<?xml version="1.0" encoding="UTF-8"?>
<svg width="15mm" height="15mm" version="1.1" viewBox="0 0 15 15" xmlns="http://www.w3.org/2000/svg" xmlns:xlink="http://www.w3.org/1999/xlink">
 <defs>
  <symbol id="b" overflow="visible">
   <path d="m4.4062-6.9531c-0.0625-0.14062-0.09375-0.1875-0.26562-0.1875-0.15625 0-0.1875 0.046875-0.25 0.1875l-3.375 6.75c-0.046875 0.09375-0.046875 0.10938-0.046875 0.125 0 0.078125 0.0625 0.078125 0.21875 0.078125h6.9219c0.15625 0 0.21875 0 0.21875-0.078125 0-0.015625 0-0.03125-0.046875-0.125zm-0.57812 0.8125 2.6875 5.3906h-5.375z"/>
  </symbol>
  <symbol id="a" overflow="visible">
   <path d="m3.2188-1.5781h2.1406c0.09375 0 0.25 0 0.25-0.15625 0-0.1875-0.15625-0.1875-0.25-0.1875h-2.1406v-2.1406c0-0.078125 0-0.25-0.15625-0.25-0.17188 0-0.17188 0.15625-0.17188 0.25v2.1406h-2.1406c-0.09375 0-0.26562 0-0.26562 0.17188s0.15625 0.17188 0.26562 0.17188h2.1406v2.1406c0 0.09375 0 0.26562 0.15625 0.26562 0.17188 0 0.17188-0.17188 0.17188-0.26562z"/>
  </symbol>
 </defs>
 <g transform="translate(-62.339 -70.396)">
  <g transform="translate(-29.276 -.10328)">
   <g>
    <use x="91.925003" y="81.962997" width="100%" height="100%" xlink:href="#b"/>
    <use x="100.227" y="78.348" width="100%" height="100%" xlink:href="#a"/>
   </g>
  </g>
 </g>
</svg>
